{"title":"Growth 2010 DVDRip Xvid BigPerm LKRG","uid":6361833,"size":962227656,"categoryP":"video","categoryS":"movies","magnet":"?xt=urn:btih:e272e463c078962eebbfe9f908009fbf87cea818&amp;dn=Growth+2010+DVDRip+Xvid+BigPerm+LKRG&amp;tr=udp%3A%2F%2Ftracker.openbittorrent.com%3A80&amp;tr=udp%3A%2F%2Fopen.demonii.com%3A1337&amp;tr=udp%3A%2F%2Ftracker.coppersurfer.tk%3A6969&amp;tr=udp%3A%2F%2Fexodus.desync.com%3A6969","seeders":2,"leechers":1,"uploader":".BONE.","files":2,"time":1304358251,"description":"\nPLOT\n\nIn 1989, a breakthrough in advanced parasitic research on Cuttyhunk Island, gave scientists\na jump in human evolution...\n &lt;a href=&quot;\nhttp://www.imdb.com/title/tt1300159/&quot; rel=&quot;nofollow&quot; target=&quot;_NEW&quot;&gt;\nhttp://www.imdb.com/title/tt1300159/&lt;/a&gt;\n\nEncoded By .......: BigPerm1828\nRuntime ..........: 1h 30mn\nFile Size ........: 918 MB\nResolution .......: 704x396\nIMDb URL .........: http://www.imdb.com/title/tt1300159/\nLanguage .........: English\nVideo\nID : 0\nFormat : MPEG-4 Visual\nFormat profile : Advanced Simple@L5\nFormat settings, BVOP : Yes\nFormat settings, QPel : No\nFormat settings, GMC : No warppoints\nFormat settings, Matrix : Default (H.263)\nCodec ID : XVID\nCodec ID/Hint : XviD\nDuration : 1h 30mn\nBit rate : 969 Kbps\nWidth : 704 pixels\nHeight : 396 pixels\nDisplay aspect ratio : 16:9\nFrame rate : 23.976 fps\nColor space : YUV\nChroma subsampling : 4:2:0\nBit depth : 8 bits\nScan type : Progressive\nCompression mode : Lossy\nBits/(Pixel*Frame) : 0.145\nStream size : 625 MiB (68%)\nWriting library : XviD 1.2.1 (UTC 2008-12-04)\n\nAudio\nID : 1\nFormat : AC-3\nFormat/Info : Audio Coding 3\nMode extension : CM (complete main)\nCodec ID : 2000\nDuration : 1h 30mn\nBit rate mode : Constant\nBit rate : 448 Kbps\nChannel(s) : 6 channels\nChannel positions : Front: L C R, Side: L R, LFE\nSampling rate : 48.0 KHz\nBit depth : 16 bits\nCompression mode : Lossy\nVideo delay : 42ms\nStream size : 289 MiB (32%)\nAlignment : Split accross interleaves\nInterleave, duration : 500 ms (11.99 video frames)\nInterleave, preload duration : 500 ms\n\n &lt;a href=&quot;\nhttp://www.shotpix.com/images/17875893497447234972.png&quot; rel=&quot;nofollow&quot; target=&quot;_NEW&quot;&gt;\nhttp://www.shotpix.com/images/17875893497447234972.png&lt;/a&gt;\n &lt;a href=&quot;\nhttp://www.shotpix.com/images/56677432889423232790.png&quot; rel=&quot;nofollow&quot; target=&quot;_NEW&quot;&gt;\nhttp://www.shotpix.com/images/56677432889423232790.png&lt;/a&gt;\n &lt;a href=&quot;\nhttp://www.shotpix.com/images/44033381541078270405.png&quot; rel=&quot;nofollow&quot; target=&quot;_NEW&quot;&gt;\nhttp://www.shotpix.com/images/44033381541078270405.png&lt;/a&gt;\n &lt;a href=&quot;\nhttp://www.shotpix.com/images/67732673548091343603.png&quot; rel=&quot;nofollow&quot; target=&quot;_NEW&quot;&gt;\nhttp://www.shotpix.com/images/67732673548091343603.png&lt;/a&gt;\n &lt;a href=&quot;\nhttp://www.shotpix.com/images/64830900326973431957.png&quot; rel=&quot;nofollow&quot; target=&quot;_NEW&quot;&gt;\nhttp://www.shotpix.com/images/64830900326973431957.png&lt;/a&gt;","torrent":{"xt":"urn:btih:e272e463c078962eebbfe9f908009fbf87cea818","amp;dn":"Growth+2010+DVDRip+Xvid+BigPerm+LKRG","amp;tr":["udp%3A%2F%2Ftracker.openbittorrent.com%3A80","udp%3A%2F%2Fopen.demonii.com%3A1337","udp%3A%2F%2Ftracker.coppersurfer.tk%3A6969","udp%3A%2F%2Fexodus.desync.com%3A6969"],"infoHash":"e272e463c078962eebbfe9f908009fbf87cea818","infoHashBuffer":{"type":"Buffer","data":[226,114,228,99,192,120,150,46,235,191,233,249,8,0,159,191,135,206,168,24]},"announce":[],"urlList":[]}}